<mxfile host="app.diagrams.net" modified="2023-10-11T22:27:45.918Z" agent="Mozilla/5.0 (Windows NT 10.0; Win64; x64) AppleWebKit/537.36 (KHTML, like Gecko) Chrome/118.0.0.0 Safari/537.36" etag="CT-Eog3PKgN3RHoG-Chp" version="22.0.4" type="github">
  <diagram id="C5RBs43oDa-KdzZeNtuy" name="Page-1">
    <mxGraphModel dx="1434" dy="782" grid="1" gridSize="10" guides="1" tooltips="1" connect="1" arrows="1" fold="1" page="1" pageScale="1" pageWidth="827" pageHeight="1169" math="0" shadow="0">
      <root>
        <mxCell id="WIyWlLk6GJQsqaUBKTNV-0" />
        <mxCell id="WIyWlLk6GJQsqaUBKTNV-1" parent="WIyWlLk6GJQsqaUBKTNV-0" />
        <mxCell id="JOJGdAErGP4tE-7bASDW-0" value="Start" style="ellipse;whiteSpace=wrap;html=1;" vertex="1" parent="WIyWlLk6GJQsqaUBKTNV-1">
          <mxGeometry x="354" y="40" width="120" height="80" as="geometry" />
        </mxCell>
        <mxCell id="JOJGdAErGP4tE-7bASDW-1" value="User Input 1&lt;br&gt;(num1)" style="rounded=0;whiteSpace=wrap;html=1;" vertex="1" parent="WIyWlLk6GJQsqaUBKTNV-1">
          <mxGeometry x="319" y="180" width="190" height="60" as="geometry" />
        </mxCell>
        <mxCell id="JOJGdAErGP4tE-7bASDW-3" value="User Input 2&lt;br&gt;(num2)" style="rounded=0;whiteSpace=wrap;html=1;" vertex="1" parent="WIyWlLk6GJQsqaUBKTNV-1">
          <mxGeometry x="319" y="260" width="190" height="60" as="geometry" />
        </mxCell>
        <mxCell id="JOJGdAErGP4tE-7bASDW-4" value="num1 &amp;gt; num2" style="rhombus;whiteSpace=wrap;html=1;" vertex="1" parent="WIyWlLk6GJQsqaUBKTNV-1">
          <mxGeometry x="334" y="370" width="160" height="110" as="geometry" />
        </mxCell>
        <mxCell id="JOJGdAErGP4tE-7bASDW-6" value="Print num1 is greater" style="rounded=0;whiteSpace=wrap;html=1;" vertex="1" parent="WIyWlLk6GJQsqaUBKTNV-1">
          <mxGeometry x="144" y="525" width="190" height="60" as="geometry" />
        </mxCell>
        <mxCell id="JOJGdAErGP4tE-7bASDW-7" value="Print num2 is greater" style="rounded=0;whiteSpace=wrap;html=1;" vertex="1" parent="WIyWlLk6GJQsqaUBKTNV-1">
          <mxGeometry x="494" y="525" width="190" height="60" as="geometry" />
        </mxCell>
        <mxCell id="JOJGdAErGP4tE-7bASDW-8" value="End" style="ellipse;whiteSpace=wrap;html=1;" vertex="1" parent="WIyWlLk6GJQsqaUBKTNV-1">
          <mxGeometry x="354" y="670" width="120" height="80" as="geometry" />
        </mxCell>
        <mxCell id="JOJGdAErGP4tE-7bASDW-9" value="" style="endArrow=none;html=1;rounded=0;" edge="1" parent="WIyWlLk6GJQsqaUBKTNV-1">
          <mxGeometry width="50" height="50" relative="1" as="geometry">
            <mxPoint x="588.5" y="640" as="sourcePoint" />
            <mxPoint x="588.5" y="585" as="targetPoint" />
            <Array as="points">
              <mxPoint x="588.5" y="620" />
            </Array>
          </mxGeometry>
        </mxCell>
        <mxCell id="JOJGdAErGP4tE-7bASDW-11" value="" style="endArrow=none;html=1;rounded=0;" edge="1" parent="WIyWlLk6GJQsqaUBKTNV-1">
          <mxGeometry width="50" height="50" relative="1" as="geometry">
            <mxPoint x="240" y="585" as="sourcePoint" />
            <mxPoint x="240" y="640" as="targetPoint" />
          </mxGeometry>
        </mxCell>
        <mxCell id="JOJGdAErGP4tE-7bASDW-13" value="" style="endArrow=none;html=1;rounded=0;" edge="1" parent="WIyWlLk6GJQsqaUBKTNV-1">
          <mxGeometry width="50" height="50" relative="1" as="geometry">
            <mxPoint x="410" y="510" as="sourcePoint" />
            <mxPoint x="240" y="510" as="targetPoint" />
          </mxGeometry>
        </mxCell>
        <mxCell id="JOJGdAErGP4tE-7bASDW-14" value="" style="endArrow=none;html=1;rounded=0;" edge="1" parent="WIyWlLk6GJQsqaUBKTNV-1">
          <mxGeometry width="50" height="50" relative="1" as="geometry">
            <mxPoint x="420" y="640" as="sourcePoint" />
            <mxPoint x="590" y="640" as="targetPoint" />
            <Array as="points" />
          </mxGeometry>
        </mxCell>
        <mxCell id="JOJGdAErGP4tE-7bASDW-15" value="" style="endArrow=classic;html=1;rounded=0;" edge="1" parent="WIyWlLk6GJQsqaUBKTNV-1">
          <mxGeometry width="50" height="50" relative="1" as="geometry">
            <mxPoint x="414" y="320" as="sourcePoint" />
            <mxPoint x="414" y="370" as="targetPoint" />
          </mxGeometry>
        </mxCell>
        <mxCell id="JOJGdAErGP4tE-7bASDW-17" style="edgeStyle=orthogonalEdgeStyle;rounded=0;orthogonalLoop=1;jettySize=auto;html=1;entryX=0.5;entryY=0;entryDx=0;entryDy=0;" edge="1" parent="WIyWlLk6GJQsqaUBKTNV-1" target="JOJGdAErGP4tE-7bASDW-8">
          <mxGeometry relative="1" as="geometry">
            <mxPoint x="494" y="650" as="targetPoint" />
            <mxPoint x="420" y="640" as="sourcePoint" />
          </mxGeometry>
        </mxCell>
        <mxCell id="JOJGdAErGP4tE-7bASDW-21" value="" style="endArrow=classic;html=1;rounded=0;entryX=0.5;entryY=0;entryDx=0;entryDy=0;" edge="1" parent="WIyWlLk6GJQsqaUBKTNV-1" target="JOJGdAErGP4tE-7bASDW-3">
          <mxGeometry width="50" height="50" relative="1" as="geometry">
            <mxPoint x="414" y="240" as="sourcePoint" />
            <mxPoint x="414" y="290" as="targetPoint" />
          </mxGeometry>
        </mxCell>
        <mxCell id="JOJGdAErGP4tE-7bASDW-22" value="" style="endArrow=classic;html=1;rounded=0;entryX=0.5;entryY=0;entryDx=0;entryDy=0;" edge="1" parent="WIyWlLk6GJQsqaUBKTNV-1" target="JOJGdAErGP4tE-7bASDW-1">
          <mxGeometry width="50" height="50" relative="1" as="geometry">
            <mxPoint x="413" y="120" as="sourcePoint" />
            <mxPoint x="413" y="170" as="targetPoint" />
          </mxGeometry>
        </mxCell>
        <mxCell id="JOJGdAErGP4tE-7bASDW-23" value="" style="endArrow=none;html=1;rounded=0;" edge="1" parent="WIyWlLk6GJQsqaUBKTNV-1">
          <mxGeometry width="50" height="50" relative="1" as="geometry">
            <mxPoint x="413" y="480" as="sourcePoint" />
            <mxPoint x="413" y="510" as="targetPoint" />
          </mxGeometry>
        </mxCell>
        <mxCell id="JOJGdAErGP4tE-7bASDW-24" value="" style="endArrow=none;html=1;rounded=0;" edge="1" parent="WIyWlLk6GJQsqaUBKTNV-1">
          <mxGeometry width="50" height="50" relative="1" as="geometry">
            <mxPoint x="590" y="510" as="sourcePoint" />
            <mxPoint x="410" y="510" as="targetPoint" />
          </mxGeometry>
        </mxCell>
        <mxCell id="JOJGdAErGP4tE-7bASDW-25" value="" style="endArrow=classic;html=1;rounded=0;entryX=0.5;entryY=0;entryDx=0;entryDy=0;" edge="1" parent="WIyWlLk6GJQsqaUBKTNV-1" target="JOJGdAErGP4tE-7bASDW-6">
          <mxGeometry width="50" height="50" relative="1" as="geometry">
            <mxPoint x="238.5" y="510" as="sourcePoint" />
            <mxPoint x="239" y="520" as="targetPoint" />
          </mxGeometry>
        </mxCell>
        <mxCell id="JOJGdAErGP4tE-7bASDW-26" value="" style="endArrow=classic;html=1;rounded=0;entryX=0.5;entryY=0;entryDx=0;entryDy=0;" edge="1" parent="WIyWlLk6GJQsqaUBKTNV-1">
          <mxGeometry width="50" height="50" relative="1" as="geometry">
            <mxPoint x="588.5" y="510" as="sourcePoint" />
            <mxPoint x="589" y="525" as="targetPoint" />
          </mxGeometry>
        </mxCell>
        <mxCell id="JOJGdAErGP4tE-7bASDW-27" value="" style="endArrow=none;html=1;rounded=0;" edge="1" parent="WIyWlLk6GJQsqaUBKTNV-1">
          <mxGeometry width="50" height="50" relative="1" as="geometry">
            <mxPoint x="240" y="640" as="sourcePoint" />
            <mxPoint x="440" y="640" as="targetPoint" />
            <Array as="points" />
          </mxGeometry>
        </mxCell>
        <mxCell id="JOJGdAErGP4tE-7bASDW-28" value="True" style="text;html=1;align=center;verticalAlign=middle;resizable=0;points=[];autosize=1;strokeColor=none;fillColor=none;" vertex="1" parent="WIyWlLk6GJQsqaUBKTNV-1">
          <mxGeometry x="155" y="458" width="50" height="30" as="geometry" />
        </mxCell>
        <mxCell id="JOJGdAErGP4tE-7bASDW-29" value="False" style="text;html=1;align=center;verticalAlign=middle;resizable=0;points=[];autosize=1;strokeColor=none;fillColor=none;" vertex="1" parent="WIyWlLk6GJQsqaUBKTNV-1">
          <mxGeometry x="555" y="458" width="50" height="30" as="geometry" />
        </mxCell>
      </root>
    </mxGraphModel>
  </diagram>
</mxfile>
